<svg xmlns="http://www.w3.org/2000/svg" viewBox="0 0 600 350">
  <!-- Red Verity logo -->
  <g fill="#e91e63">
    <path d="M31.4 18.9L123.7 207h25.9L31.4 18.9z"/>
    <path d="M20.1 9.7v9.2l125.6 207.4h-28.6L20.1 9.7z"/>
    <path d="M356.9 207h28.7l39.7-95.7h-26.2l-42.2 95.7zm43.5-112.5h29.8l16.6-37h-31.5l-14.9 37z"/>
    <path d="M294.4 39.5c-13.1 0-23.8 10.7-23.8 23.7 0 13.1 10.7 23.8 23.8 23.8 13.2 0 23.9-10.7 23.9-23.8-.1-13-10.8-23.7-23.9-23.7z"/>
    <path d="M266.9 207h55.6c-1.6-4.1-2.5-8.5-2.5-13.1 0-.8 0-1.6.1-2.3h-53.2V207z"/>
    <path d="M266.9 113.3V169h55.6v-55.7h-55.6z"/>
    <path d="M491.2 113.3h-24.6v19.5h.1c.6 10.2 5.4 19.2 12.9 25.4 5.9 4.9 13.5 7.8 21.7 7.8 1.9 0 3.8-.2 5.6-.5v-22c-.6.1-1.2.1-1.8.1-4.1 0-7.9-1.2-11-3.3-3.6-2.3-6.1-6.2-6.9-10.7h41V97.5c0-12.2-3.7-23.5-10.1-32.8-8.4-12.4-22.6-20.6-38.7-20.6-26 0-47 21-47 47v116h24.7v-94.8z"/>
    <path d="M491.2 113.3h19.2c-.8-3.2-1.3-6.6-1.3-10 0-3.6.5-7 1.4-10.2-.1 0-.2-.1-.3-.1-7.4-3.6-11.6-11.1-11.9-19.6-14.7 1.9-26.1 14.5-26.1 29.7v10.2h19z"/>
    <path d="M177.9 169.4c.3 22.1 17.6 40 39.4 40.7.3 0 .5-.1.8-.1h50.6c.2-.9.3-1.7.3-2.6V97.5c0-3.4-.3-6.7-1-9.9-.1 0-48.4-.1-48.4-.1-25.3 0-45.9 20.7-45.9 46 0 2 .1 3.9.3 5.8h24.4c-.3-1.9-.5-3.8-.5-5.8 0-11.8 9.6-21.4 21.4-21.4h25.3v57.3h-25.3c-11.8 0-21.4-9.6-21.4-21.4 0-2 .3-4 .9-5.9h-21.3z"/>
  </g>
  
  <!-- Gray "Training Experts" text -->
  <g fill="#4a4a4a">
    <path d="M94.8 284.6v9.1H60.1v-62h34v9.1H71.2v16.9h21v9h-21v17.9h23.6z"/>
    <path d="M141.4 231.7l14.2 62h-10.6l-3.1-14.5h-17.7l-3.1 14.5h-10.3l14.2-62h16.4zm-1.6 37.9l-6.6-31.2-6.6 31.2h13.2z"/>
    <path d="M203.3 293.7h-11.1v-5.7c-3.3 4.5-7.6 6.7-12.8 6.7-4 0-7.4-1.3-10.2-4s-4.2-6.2-4.2-10.6v-28.3h10.8v26.8c0 4.5 2 6.8 6.1 6.8 2.1 0 3.9-.7 5.4-2.1 1.5-1.4 2.2-3.3 2.2-5.8v-25.7h10.8v41.9z"/>
    <path d="M229.5 253.3c3.3-1.4 6.6-2.1 9.9-2.1 5.7 0 10.3 1.7 13.7 5.2 3.4 3.5 5.1 8.2 5.1 14.3v23h-10.8v-5.2c-2.9 4-7.1 6-12.4 6-4.4 0-8-1.2-10.9-3.6-2.9-2.4-4.3-5.8-4.3-10.1 0-4.3 1.5-7.8 4.5-10.2 3-2.5 7.5-3.7 13.6-3.7h8.7c0-4.9-2.4-7.4-7.3-7.4-4.2 0-8.2 1.4-11.9 4.1l-4.6-7.8c2.1-1.6 4.6-2.9 6.7-3.5zm18 22.7h-7.2c-5.7 0-8.6 1.9-8.6 5.7 0 1.8.5 3.2 1.6 4.1 1.1 1 2.5 1.5 4.4 1.5 2.3 0 4.2-.7 5.7-2.2 1.5-1.5 2.3-3.4 2.3-5.8v-3.3z"/>
    <path d="M262.3 251.8h11.1v6.1c1.5-2.3 3.3-4.1 5.3-5.3 2-1.2 4.3-1.8 6.8-1.8 5.6 0 9.5 2.4 11.6 7.3 3.7-4.9 8.3-7.3 13.9-7.3 4.4 0 7.9 1.4 10.4 4.1 2.5 2.7 3.8 6.8 3.8 12.1v26.7h-10.8v-25c0-2.6-.5-4.6-1.4-5.8-1-1.3-2.5-1.9-4.6-1.9-1.9 0-3.5.7-4.8 2.2-1.3 1.5-2 3.4-2 5.9v24.6h-10.8v-25c0-2.6-.5-4.6-1.4-5.8-1-1.3-2.5-1.9-4.6-1.9-1.9 0-3.5.7-4.9 2.2-1.3 1.4-2 3.4-2 5.8v24.7h-10.8v-41.9z"/>
    <path d="M336.8 251.8h11.1v5.7c3.2-4.4 7.5-6.6 12.7-6.6 4 0 7.4 1.3 10.2 4 2.8 2.7 4.2 6.2 4.2 10.7v28.1h-10.8v-26.8c0-4.6-2-6.8-6.1-6.8-2.1 0-3.9.7-5.4 2.1-1.5 1.4-2.2 3.4-2.2 5.8v25.7h-10.8v-41.9z"/>
    <path d="M425.9 293.7H415v-5.7c-3.2 4.5-7.4 6.7-12.6 6.7-5.3 0-9.7-2-13-5.9-3.4-3.9-5-8.9-5-15 0-6.1 1.7-11.1 5-15 3.4-3.9 7.7-5.9 13-5.9 5.1 0 9.2 2.1 12.3 6.2v-23h11.1v57.6zm-11.1-13.3v-13.8c-1.4-1.9-3.7-2.9-6.9-2.9-2.5 0-4.4.9-5.9 2.8-1.5 1.9-2.2 4.3-2.2 7.5 0 3.1.7 5.6 2.2 7.5 1.5 1.9 3.4 2.8 5.9 2.8 3.2 0 5.5-1 6.9-2.9z"/>
    <path d="M467.5 293.7h-11.1v-5.7c-3.3 4.5-7.6 6.7-12.8 6.7-4 0-7.4-1.3-10.2-4s-4.2-6.2-4.2-10.6v-28.3H440v26.8c0 4.5 2 6.8 6.1 6.8 2.1 0 3.9-.7 5.4-2.1 1.5-1.4 2.2-3.3 2.2-5.8v-25.7h10.8v41.9z"/>
    <path d="M508.8 273.7h-21.1c.3 2.5 1.3 4.4 2.9 5.8 1.6 1.4 3.7 2.1 6.2 2.1 3.8 0 6.7-1.3 8.7-4l5.9 6.8c-3.7 4.2-9 6.3-15.8 6.3-6.3 0-11.3-1.9-15-5.8-3.7-3.9-5.6-8.9-5.6-15.1 0-6.2 1.9-11.2 5.8-15 3.9-3.9 8.6-5.8 14.2-5.8 5.6 0 10.2 1.7 13.7 5.1 3.5 3.4 5.3 8 5.3 13.9.1.8-.1 3.2-.2 5.7zm-21.1-6.6h11.2c0-5.5-1.8-8.3-5.4-8.3-3.3.1-5.3 2.8-5.8 8.3z"/>
    <path d="M548.3 286.1c0 6.8-1.7 11.9-5.2 15.1-3.5 3.3-8.6 4.9-15.4 4.9-5.8 0-10.9-1.3-15.4-3.9l3.8-8.1c3.6 2 7.1 3 10.5 3 3 0 5.3-.7 6.9-2.1 1.6-1.4 2.4-3.4 2.4-6.1v-3.1c-3.1 3.9-7.2 5.9-12.1 5.9-5.2 0-9.3-1.9-12.5-5.6-3.2-3.7-4.8-8.6-4.8-14.7 0-6.1 1.6-11 4.8-14.7 3.2-3.7 7.4-5.6 12.5-5.6 5.3 0 9.4 2.1 12.5 6.4v-5.7h11.9v34.3zm-11.9-13v-13.4c-1.5-1.9-3.8-2.9-7-2.9-2.5 0-4.5.9-5.9 2.8-1.5 1.8-2.2 4.3-2.2 7.3 0 3 .7 5.5 2.2 7.3 1.5 1.8 3.5 2.8 5.9 2.8 3 0 5.3-1.3 7-3.9z"/>
  </g>
</svg> 